<svg xmlns="http://www.w3.org/2000/svg" xmlns:xlink="http://www.w3.org/1999/xlink" width="200" zoomAndPan="magnify" viewBox="0 0 150 60" height="80" preserveAspectRatio="xMidYMid meet" version="1.0"><defs><g/><clipPath id="f21a536adf"><path d="M 39 7 L 50.761719 7 L 50.761719 27 L 39 27 Z M 39 7 " clip-rule="nonzero"/></clipPath><clipPath id="3b3e02eb7a"><path d="M 23.761719 6 L 49 6 L 49 51 L 23.761719 51 Z M 23.761719 6 " clip-rule="nonzero"/></clipPath><clipPath id="b0b5e365e2"><path d="M 23.761719 30 L 32 30 L 32 35 L 23.761719 35 Z M 23.761719 30 " clip-rule="nonzero"/></clipPath><clipPath id="26ea68e71b"><path d="M 23.761719 6 L 49 6 L 49 31 L 23.761719 31 Z M 23.761719 6 " clip-rule="nonzero"/></clipPath><clipPath id="4fa19d4bf5"><path d="M 23.761719 6 L 49 6 L 49 51 L 23.761719 51 Z M 23.761719 6 " clip-rule="nonzero"/></clipPath><clipPath id="df5e49bc5f"><path d="M 39 7 L 50.761719 7 L 50.761719 28 L 39 28 Z M 39 7 " clip-rule="nonzero"/></clipPath><clipPath id="8e34a2d2c0"><path d="M 23.761719 30 L 33 30 L 33 35 L 23.761719 35 Z M 23.761719 30 " clip-rule="nonzero"/></clipPath></defs><g clip-path="url(#f21a536adf)"><path fill="#ff66c4" d="M 48.402344 7.347656 L 50.539062 10.605469 L 43.097656 26.847656 L 39.960938 26.039062 L 47.070312 10.289062 Z M 48.402344 7.347656 " fill-opacity="1" fill-rule="nonzero"/></g><path fill="#ff66c4" d="M 48.492188 30.960938 L 27.351562 53.800781 L 25.316406 50.546875 L 30.335938 45.125 L 46.457031 27.710938 Z M 48.492188 30.960938 " fill-opacity="1" fill-rule="nonzero"/><g clip-path="url(#3b3e02eb7a)"><path fill="#8c52ff" d="M 48.378906 7.316406 L 48.402344 7.347656 L 47.070312 10.289062 L 39.960938 26.039062 L 43.097656 26.847656 L 46.457031 27.710938 L 30.335938 45.125 L 25.316406 50.546875 L 30.894531 34.332031 L 31.894531 31.433594 L 27.324219 30.90625 L 23.984375 30.519531 L 35.027344 6.207031 Z M 48.378906 7.316406 " fill-opacity="1" fill-rule="nonzero"/></g><g clip-path="url(#b0b5e365e2)"><path fill="#ff66c4" d="M 31.894531 31.433594 L 30.894531 34.332031 L 26.019531 33.773438 L 23.984375 30.519531 L 27.324219 30.90625 Z M 31.894531 31.433594 " fill-opacity="1" fill-rule="nonzero"/></g><path fill="#000000" d="M 27.351562 54 C 27.222656 54 27.15625 53.933594 27.15625 53.800781 C 27.15625 53.667969 27.222656 53.601562 27.351562 53.601562 C 27.484375 53.601562 27.546875 53.667969 27.546875 53.800781 C 27.546875 53.933594 27.484375 54 27.351562 54 Z M 27.351562 54 " fill-opacity="1" fill-rule="nonzero"/><g clip-path="url(#26ea68e71b)"><path fill="#000000" d="M 23.984375 30.71875 C 23.914062 30.71875 23.859375 30.6875 23.820312 30.628906 C 23.78125 30.566406 23.777344 30.503906 23.808594 30.4375 L 34.847656 6.125 C 34.886719 6.039062 34.949219 6.003906 35.042969 6.011719 L 48.394531 7.117188 C 48.460938 7.125 48.511719 7.152344 48.546875 7.210938 L 48.566406 7.242188 C 48.625 7.335938 48.613281 7.421875 48.535156 7.496094 C 48.453125 7.570312 48.371094 7.574219 48.28125 7.507812 L 35.148438 6.417969 L 24.164062 30.601562 C 24.128906 30.679688 24.070312 30.71875 23.984375 30.71875 Z M 23.984375 30.71875 " fill-opacity="1" fill-rule="nonzero"/></g><path fill="#000000" d="M 25.316406 50.746094 C 25.25 50.746094 25.195312 50.71875 25.15625 50.664062 C 25.117188 50.609375 25.109375 50.546875 25.132812 50.484375 L 30.710938 34.269531 C 30.753906 34.144531 30.835938 34.101562 30.960938 34.148438 C 31.082031 34.191406 31.125 34.273438 31.082031 34.398438 L 25.5 50.613281 C 25.472656 50.703125 25.410156 50.746094 25.316406 50.746094 Z M 25.316406 50.746094 " fill-opacity="1" fill-rule="nonzero"/><path fill="#000000" d="M 46.457031 27.910156 C 46.441406 27.910156 46.425781 27.90625 46.410156 27.902344 L 43.050781 27.039062 C 42.925781 27 42.882812 26.917969 42.917969 26.792969 C 42.953125 26.664062 43.035156 26.621094 43.160156 26.660156 L 46.507812 27.519531 C 46.617188 27.546875 46.667969 27.621094 46.652344 27.734375 C 46.636719 27.851562 46.574219 27.910156 46.457031 27.910156 Z M 46.457031 27.910156 " fill-opacity="1" fill-rule="nonzero"/><path fill="#000000" d="M 26.019531 33.972656 C 25.96875 33.972656 25.921875 33.953125 25.886719 33.917969 L 25.886719 33.914062 C 25.839844 33.871094 25.820312 33.816406 25.828125 33.75 C 25.835938 33.6875 25.867188 33.636719 25.921875 33.601562 C 25.976562 33.570312 26.035156 33.566406 26.09375 33.589844 C 26.152344 33.613281 26.191406 33.660156 26.207031 33.722656 C 26.226562 33.785156 26.214844 33.839844 26.175781 33.894531 C 26.136719 33.945312 26.085938 33.972656 26.019531 33.972656 Z M 26.019531 33.972656 " fill-opacity="1" fill-rule="nonzero"/><path fill="#000000" d="M 27.351562 54 C 27.222656 54 27.15625 53.933594 27.15625 53.800781 C 27.15625 53.667969 27.222656 53.601562 27.351562 53.601562 C 27.484375 53.601562 27.546875 53.667969 27.546875 53.800781 C 27.546875 53.933594 27.484375 54 27.351562 54 Z M 27.351562 54 " fill-opacity="1" fill-rule="nonzero"/><g clip-path="url(#4fa19d4bf5)"><path fill="#000000" d="M 25.316406 50.746094 C 25.25 50.746094 25.195312 50.71875 25.15625 50.664062 C 25.117188 50.609375 25.109375 50.546875 25.132812 50.484375 L 31.628906 31.601562 L 23.964844 30.71875 C 23.898438 30.710938 23.847656 30.675781 23.816406 30.617188 C 23.78125 30.558594 23.78125 30.5 23.808594 30.4375 L 34.847656 6.125 C 34.886719 6.039062 34.949219 6.003906 35.042969 6.011719 L 48.394531 7.117188 C 48.460938 7.125 48.511719 7.152344 48.546875 7.210938 L 48.566406 7.242188 C 48.605469 7.304688 48.609375 7.367188 48.578125 7.429688 L 40.234375 25.90625 L 43.148438 26.652344 C 43.152344 26.65625 43.160156 26.65625 43.164062 26.660156 L 46.507812 27.519531 C 46.578125 27.535156 46.625 27.582031 46.644531 27.65625 C 46.667969 27.726562 46.652344 27.792969 46.601562 27.847656 L 30.492188 45.25 C 30.488281 45.253906 30.484375 45.257812 30.480469 45.261719 L 25.460938 50.683594 C 25.421875 50.726562 25.371094 50.746094 25.316406 50.746094 Z M 24.277344 30.355469 L 31.917969 31.234375 C 31.976562 31.242188 32.027344 31.273438 32.058594 31.328125 C 32.09375 31.382812 32.097656 31.4375 32.078125 31.496094 L 25.804688 49.730469 L 30.183594 45 C 30.1875 44.996094 30.191406 44.992188 30.195312 44.988281 L 46.089844 27.820312 L 43.050781 27.039062 C 43.042969 27.039062 43.039062 27.035156 43.03125 27.035156 L 39.910156 26.230469 C 39.851562 26.214844 39.808594 26.179688 39.78125 26.125 C 39.757812 26.070312 39.753906 26.011719 39.78125 25.957031 L 46.894531 10.207031 L 48.121094 7.492188 L 35.148438 6.417969 Z M 24.277344 30.355469 " fill-opacity="1" fill-rule="nonzero"/></g><g clip-path="url(#df5e49bc5f)"><path fill="#000000" d="M 43.097656 27.042969 C 43.082031 27.042969 43.066406 27.042969 43.050781 27.039062 L 39.910156 26.230469 C 39.851562 26.214844 39.808594 26.179688 39.78125 26.125 C 39.757812 26.070312 39.753906 26.011719 39.78125 25.957031 L 48.222656 7.265625 C 48.253906 7.195312 48.308594 7.15625 48.386719 7.152344 C 48.460938 7.144531 48.523438 7.175781 48.5625 7.238281 L 50.703125 10.496094 C 50.742188 10.558594 50.75 10.621094 50.71875 10.691406 L 43.277344 26.929688 C 43.242188 27.007812 43.183594 27.042969 43.097656 27.042969 Z M 40.234375 25.90625 L 42.988281 26.613281 L 50.316406 10.625 L 48.433594 7.753906 Z M 40.234375 25.90625 " fill-opacity="1" fill-rule="nonzero"/></g><g clip-path="url(#8e34a2d2c0)"><path fill="#000000" d="M 30.894531 34.53125 C 30.886719 34.53125 30.878906 34.53125 30.875 34.53125 L 25.996094 33.96875 C 25.9375 33.960938 25.886719 33.929688 25.855469 33.878906 L 23.820312 30.625 C 23.777344 30.554688 23.777344 30.484375 23.820312 30.414062 C 23.863281 30.34375 23.925781 30.316406 24.007812 30.324219 L 31.914062 31.234375 C 31.976562 31.242188 32.027344 31.273438 32.058594 31.328125 C 32.09375 31.382812 32.097656 31.4375 32.078125 31.496094 L 31.082031 34.398438 C 31.050781 34.488281 30.988281 34.53125 30.894531 34.53125 Z M 26.136719 33.585938 L 30.761719 34.117188 L 31.628906 31.601562 L 24.371094 30.765625 Z M 26.136719 33.585938 " fill-opacity="1" fill-rule="nonzero"/></g><path fill="#000000" d="M 26.019531 33.972656 C 25.96875 33.972656 25.921875 33.953125 25.886719 33.917969 L 25.886719 33.914062 C 25.839844 33.871094 25.820312 33.816406 25.828125 33.75 C 25.835938 33.6875 25.867188 33.636719 25.921875 33.601562 C 25.976562 33.570312 26.035156 33.566406 26.09375 33.589844 C 26.152344 33.613281 26.191406 33.660156 26.207031 33.722656 C 26.226562 33.785156 26.214844 33.839844 26.175781 33.894531 C 26.136719 33.945312 26.085938 33.972656 26.019531 33.972656 Z M 26.019531 33.972656 " fill-opacity="1" fill-rule="nonzero"/><path fill="#000000" d="M 27.351562 54 C 27.347656 54 27.339844 54 27.332031 54 C 27.269531 53.992188 27.222656 53.960938 27.1875 53.90625 L 25.152344 50.65625 C 25.097656 50.566406 25.105469 50.488281 25.171875 50.414062 L 30.183594 45 C 30.1875 44.996094 30.191406 44.992188 30.195312 44.988281 L 46.316406 27.574219 C 46.359375 27.527344 46.414062 27.507812 46.476562 27.511719 C 46.539062 27.519531 46.589844 27.550781 46.625 27.605469 L 48.660156 30.855469 C 48.679688 30.886719 48.6875 30.921875 48.6875 30.960938 L 48.6875 30.964844 C 48.6875 31.015625 48.671875 31.0625 48.636719 31.097656 L 27.496094 53.9375 C 27.457031 53.976562 27.410156 54 27.351562 54 Z M 25.5625 50.570312 L 27.382812 53.476562 L 48.246094 30.9375 L 46.429688 28.03125 L 30.492188 45.25 C 30.488281 45.253906 30.484375 45.257812 30.480469 45.261719 Z M 25.5625 50.570312 " fill-opacity="1" fill-rule="nonzero"/><g fill="#ffffff" fill-opacity="1"><g transform="translate(64.733772, 43.438998)"><g><path d="M 4.324219 -24.984375 C 5.605469 -24.984375 6.6875 -26.066406 6.6875 -27.347656 C 6.6875 -28.667969 5.605469 -29.710938 4.324219 -29.710938 C 3.042969 -29.710938 1.960938 -28.667969 1.960938 -27.347656 C 1.960938 -26.066406 3.042969 -24.984375 4.324219 -24.984375 Z M 2.203125 0 L 6.40625 0 L 6.40625 -20.019531 L 2.203125 -20.019531 Z M 2.203125 0 "/></g></g></g><g fill="#ffffff" fill-opacity="1"><g transform="translate(74.543914, 43.438998)"><g><path d="M 11.492188 -20.542969 C 9.210938 -20.542969 7.246094 -19.421875 5.925781 -18.019531 L 5.925781 -20.019531 L 1.722656 -20.019531 L 1.722656 0 L 5.925781 0 L 5.925781 -11.210938 C 5.925781 -15.574219 8.449219 -16.816406 10.53125 -16.816406 C 12.613281 -16.816406 15.335938 -15.777344 15.335938 -11.972656 L 15.335938 0 L 19.539062 0 L 19.539062 -11.972656 C 19.539062 -19.019531 14.375 -20.542969 11.492188 -20.542969 Z M 11.492188 -20.542969 "/></g></g></g><g fill="#ffffff" fill-opacity="1"><g transform="translate(96.967092, 43.438998)"><g><path d="M 13.253906 -28.347656 C 7.609375 -28.988281 4.324219 -28.390625 4.324219 -22.0625 L 4.324219 -20.019531 L 0.800781 -20.019531 L 0.800781 -16.214844 L 4.324219 -16.214844 L 4.324219 0 L 8.527344 0 L 8.527344 -16.214844 L 13.214844 -16.214844 L 13.214844 -20.019531 L 8.527344 -20.019531 L 8.527344 -21.78125 C 8.527344 -24.625 10.089844 -24.824219 13.253906 -24.464844 Z M 13.253906 -28.347656 "/></g></g></g><g fill="#ffffff" fill-opacity="1"><g transform="translate(111.622242, 43.438998)"><g><path d="M 12.132812 -20.019531 C 8.847656 -20.019531 6.648438 -18.300781 5.804688 -16.378906 L 5.804688 -20.019531 L 1.601562 -20.019531 L 1.601562 0 L 5.804688 0 L 5.804688 -10.609375 C 5.804688 -14.375 8.488281 -16.097656 11.691406 -16.097656 C 11.972656 -16.097656 12.253906 -16.097656 12.492188 -16.015625 L 12.8125 -20.019531 Z M 12.132812 -20.019531 "/></g></g></g></svg>