<svg xmlns="http://www.w3.org/2000/svg" xmlns:xlink="http://www.w3.org/1999/xlink" width="360" zoomAndPan="magnify" viewBox="0 0 270 55.5" height="74" preserveAspectRatio="xMidYMid meet" version="1.0"><defs><g/><clipPath id="b50e1a7da9"><path d="M 79 7 L 119.707031 7 L 119.707031 48 L 79 48 Z M 79 7 " clip-rule="nonzero"/></clipPath><clipPath id="23cffcf153"><path d="M 117 30 L 119.707031 30 L 119.707031 32 L 117 32 Z M 117 30 " clip-rule="nonzero"/></clipPath></defs><g fill="#ffffff" fill-opacity="1"><g transform="translate(126.939623, 34.563615)"><g><path d="M 6.414062 -10.585938 C 4.679688 -10.585938 3.515625 -9.675781 3.070312 -8.660156 L 3.070312 -10.585938 L 0.847656 -10.585938 L 0.847656 0 L 3.070312 0 L 3.070312 -5.609375 C 3.070312 -7.601562 4.488281 -8.511719 6.179688 -8.511719 C 6.328125 -8.511719 6.476562 -8.511719 6.605469 -8.46875 L 6.773438 -10.585938 Z M 6.414062 -10.585938 "/></g></g></g><g fill="#ffffff" fill-opacity="1"><g transform="translate(134.663385, 34.563615)"><g><path d="M 6.246094 -10.859375 C 2.964844 -10.859375 0.699219 -8.425781 0.699219 -5.292969 C 0.699219 -2.117188 2.964844 0.273438 6.414062 0.273438 C 8.46875 0.273438 10.078125 -0.59375 11.027344 -2.03125 L 9.292969 -3.046875 C 8.785156 -2.242188 7.621094 -1.671875 6.457031 -1.671875 C 4.550781 -1.671875 3.21875 -2.859375 2.921875 -4.464844 L 11.472656 -4.464844 C 11.515625 -4.742188 11.558594 -4.976562 11.558594 -5.269531 C 11.558594 -8.320312 9.398438 -10.859375 6.246094 -10.859375 Z M 2.898438 -6.222656 C 2.921875 -7.640625 4.339844 -8.914062 6.222656 -8.914062 C 7.980469 -8.914062 9.230469 -7.894531 9.441406 -6.222656 Z M 2.898438 -6.222656 "/></g></g></g><g fill="#ffffff" fill-opacity="1"><g transform="translate(147.486948, 34.563615)"><g><path d="M 6.519531 -10.839844 C 5.015625 -10.839844 3.894531 -10.160156 3.132812 -9.144531 L 3.132812 -10.585938 L 0.910156 -10.585938 L 0.910156 4.234375 L 3.132812 4.234375 L 3.132812 -1.441406 C 3.894531 -0.421875 5.015625 0.273438 6.519531 0.273438 C 9.738281 0.273438 11.769531 -2.136719 11.769531 -5.292969 C 11.769531 -8.445312 9.738281 -10.839844 6.519531 -10.839844 Z M 6.476562 -1.839844 C 4.550781 -1.839844 3.132812 -3.300781 3.132812 -5.269531 C 3.132812 -7.261719 4.550781 -8.765625 6.476562 -8.765625 C 8.339844 -8.765625 9.589844 -7.199219 9.589844 -5.292969 C 9.589844 -3.410156 8.339844 -1.839844 6.476562 -1.839844 Z M 6.476562 -1.839844 "/></g></g></g><g fill="#ffffff" fill-opacity="1"><g transform="translate(160.564444, 34.563615)"><g><path d="M 3.132812 -2.625 L 3.132812 -14.820312 L 0.910156 -14.820312 L 0.910156 -2.476562 C 0.910156 0.234375 2.519531 0.296875 4.464844 0 L 4.464844 -2.054688 C 3.554688 -1.925781 3.132812 -1.949219 3.132812 -2.625 Z M 3.132812 -2.625 "/></g></g></g><g fill="#ffffff" fill-opacity="1"><g transform="translate(166.193265, 34.563615)"><g><path d="M 9.335938 -9.125 C 8.574219 -10.140625 7.429688 -10.839844 5.925781 -10.839844 C 2.730469 -10.839844 0.699219 -8.425781 0.699219 -5.269531 C 0.699219 -2.136719 2.730469 0.273438 5.925781 0.273438 C 7.429688 0.273438 8.574219 -0.421875 9.335938 -1.441406 L 9.335938 0 L 11.558594 0 L 11.558594 -10.585938 L 9.335938 -10.585938 Z M 5.992188 -1.800781 C 4.128906 -1.800781 2.878906 -3.367188 2.878906 -5.269531 C 2.878906 -7.175781 4.128906 -8.742188 5.992188 -8.742188 C 7.917969 -8.742188 9.335938 -7.28125 9.335938 -5.292969 C 9.335938 -3.300781 7.917969 -1.800781 5.992188 -1.800781 Z M 5.992188 -1.800781 "/></g></g></g><g fill="#ffffff" fill-opacity="1"><g transform="translate(179.291926, 34.563615)"><g><path d="M 5.96875 -3.238281 L 2.5625 -10.585938 L 0.167969 -10.585938 L 4.910156 -0.273438 C 4.339844 1.058594 3.386719 2.265625 1.714844 2.097656 L 1.714844 4.234375 C 4.191406 4.425781 6.035156 2.898438 7.089844 0.210938 L 10.964844 -10.585938 L 8.617188 -10.585938 Z M 5.96875 -3.238281 "/></g></g></g><path fill="#fb0294" d="M 109.191406 19.125 L 117.988281 19.894531 C 118.320312 19.921875 118.605469 19.65625 118.59375 19.324219 L 118.316406 10.570312 C 118.300781 10.09375 117.722656 9.855469 117.375 10.183594 L 108.859375 18.171875 C 108.507812 18.5 108.710938 19.082031 109.191406 19.125 Z M 109.191406 19.125 " fill-opacity="1" fill-rule="nonzero"/><g clip-path="url(#b50e1a7da9)"><path fill="#fb0294" d="M 112.644531 43.035156 C 116.445312 39.902344 118.757812 35.738281 119.597656 31.351562 L 117.289062 30.972656 C 116.621094 34.40625 114.9375 37.683594 112.214844 40.308594 C 104.867188 47.398438 92.949219 46.957031 86.167969 39.121094 C 80.359375 32.40625 80.5 22.242188 86.5 15.691406 C 93.496094 8.046875 105.425781 7.9375 112.570312 15.226562 L 114.242188 13.613281 C 106.460938 5.675781 93.667969 5.496094 85.664062 13.21875 C 77.363281 21.230469 77.480469 34.597656 86.183594 42.449219 C 93.558594 49.105469 104.976562 49.363281 112.644531 43.035156 Z M 112.644531 43.035156 " fill-opacity="1" fill-rule="nonzero"/></g><g clip-path="url(#23cffcf153)"><path fill="#fb0294" d="M 118.636719 30.015625 C 118 29.910156 117.398438 30.335938 117.289062 30.964844 L 119.597656 31.347656 C 119.707031 30.71875 119.273438 30.121094 118.636719 30.015625 Z M 118.636719 30.015625 " fill-opacity="1" fill-rule="nonzero"/></g><path fill="#fb0294" d="M 108.871094 28.488281 C 108.902344 28.390625 108.921875 28.292969 108.941406 28.191406 C 108.960938 28.089844 108.980469 27.988281 108.992188 27.882812 C 109.003906 27.78125 109 27.679688 109 27.578125 C 109 27.476562 109.003906 27.375 108.992188 27.273438 C 108.984375 27.171875 108.960938 27.066406 108.941406 26.964844 C 108.921875 26.867188 108.902344 26.765625 108.871094 26.671875 C 108.84375 26.574219 108.804688 26.480469 108.765625 26.386719 C 108.722656 26.285156 108.683594 26.183594 108.628906 26.085938 C 108.613281 26.050781 108.601562 26.015625 108.582031 25.984375 C 108.550781 25.929688 108.507812 25.886719 108.472656 25.832031 C 108.414062 25.742188 108.351562 25.648438 108.277344 25.5625 C 108.210938 25.480469 108.136719 25.402344 108.058594 25.328125 C 107.988281 25.257812 107.917969 25.191406 107.84375 25.128906 C 107.746094 25.050781 107.648438 24.984375 107.542969 24.917969 C 107.496094 24.886719 107.457031 24.847656 107.40625 24.820312 L 97.527344 19.160156 C 97.476562 19.128906 97.421875 19.117188 97.367188 19.089844 C 97.261719 19.035156 97.15625 18.984375 97.042969 18.945312 C 96.949219 18.910156 96.851562 18.882812 96.753906 18.855469 C 96.652344 18.828125 96.550781 18.804688 96.445312 18.785156 C 96.332031 18.765625 96.222656 18.757812 96.109375 18.753906 C 96.046875 18.75 95.984375 18.734375 95.921875 18.734375 C 95.882812 18.734375 95.851562 18.742188 95.8125 18.746094 C 95.703125 18.75 95.59375 18.761719 95.484375 18.777344 C 95.378906 18.792969 95.277344 18.804688 95.175781 18.828125 C 95.082031 18.851562 94.992188 18.882812 94.898438 18.914062 C 94.792969 18.949219 94.6875 18.984375 94.589844 19.027344 C 94.5 19.070312 94.417969 19.117188 94.335938 19.164062 C 94.242188 19.21875 94.144531 19.273438 94.058594 19.335938 C 93.976562 19.390625 93.90625 19.457031 93.832031 19.519531 C 93.75 19.589844 93.664062 19.660156 93.589844 19.742188 C 93.527344 19.808594 93.46875 19.882812 93.414062 19.953125 C 93.335938 20.050781 93.265625 20.144531 93.199219 20.246094 C 93.183594 20.273438 93.160156 20.296875 93.144531 20.328125 C 93.113281 20.375 93.097656 20.429688 93.074219 20.480469 C 93.015625 20.589844 92.964844 20.695312 92.921875 20.808594 C 92.886719 20.902344 92.863281 20.996094 92.835938 21.089844 C 92.808594 21.195312 92.78125 21.296875 92.765625 21.402344 C 92.746094 21.511719 92.738281 21.625 92.730469 21.734375 C 92.726562 21.796875 92.710938 21.855469 92.710938 21.917969 L 92.710938 33.238281 C 92.710938 33.300781 92.726562 33.359375 92.730469 33.421875 C 92.738281 33.53125 92.746094 33.644531 92.765625 33.753906 C 92.78125 33.859375 92.808594 33.964844 92.835938 34.066406 C 92.863281 34.160156 92.886719 34.253906 92.921875 34.34375 C 92.964844 34.460938 93.015625 34.566406 93.074219 34.675781 C 93.097656 34.726562 93.113281 34.78125 93.144531 34.828125 C 93.160156 34.859375 93.183594 34.882812 93.199219 34.910156 C 93.265625 35.011719 93.335938 35.105469 93.414062 35.203125 C 93.46875 35.273438 93.527344 35.347656 93.589844 35.414062 C 93.664062 35.492188 93.75 35.566406 93.832031 35.636719 C 93.90625 35.699219 93.976562 35.765625 94.058594 35.820312 C 94.144531 35.882812 94.242188 35.9375 94.335938 35.992188 C 94.417969 36.039062 94.5 36.085938 94.589844 36.125 C 94.6875 36.171875 94.792969 36.207031 94.898438 36.242188 C 94.992188 36.273438 95.082031 36.304688 95.175781 36.328125 C 95.277344 36.351562 95.378906 36.363281 95.484375 36.378906 C 95.59375 36.394531 95.703125 36.40625 95.8125 36.410156 C 95.851562 36.414062 95.882812 36.421875 95.921875 36.421875 C 95.984375 36.421875 96.046875 36.40625 96.109375 36.402344 C 96.222656 36.398438 96.332031 36.390625 96.445312 36.371094 C 96.550781 36.351562 96.652344 36.328125 96.753906 36.300781 C 96.851562 36.273438 96.949219 36.246094 97.042969 36.210938 C 97.15625 36.171875 97.261719 36.121094 97.367188 36.066406 C 97.421875 36.039062 97.476562 36.027344 97.527344 35.996094 L 107.40625 30.335938 C 107.457031 30.308594 107.496094 30.269531 107.542969 30.238281 C 107.648438 30.171875 107.746094 30.105469 107.84375 30.027344 C 107.917969 29.964844 107.988281 29.898438 108.058594 29.828125 C 108.132812 29.753906 108.207031 29.675781 108.277344 29.59375 C 108.351562 29.503906 108.414062 29.414062 108.472656 29.320312 C 108.507812 29.269531 108.550781 29.226562 108.582031 29.171875 C 108.601562 29.136719 108.613281 29.105469 108.628906 29.070312 C 108.683594 28.972656 108.726562 28.871094 108.765625 28.769531 C 108.804688 28.675781 108.84375 28.582031 108.871094 28.488281 Z M 108.871094 28.488281 " fill-opacity="1" fill-rule="nonzero"/></svg>