<svg xmlns="http://www.w3.org/2000/svg" xmlns:xlink="http://www.w3.org/1999/xlink" width="1024" zoomAndPan="magnify" viewBox="0 0 768 767.999994" height="1024" preserveAspectRatio="xMidYMid meet" version="1.0"><path fill="#fb0294" d="M 533.757812 267.628906 L 657.0625 278.386719 C 661.726562 278.796875 665.707031 275.066406 665.558594 270.429688 L 661.652344 147.789062 C 661.429688 141.121094 653.371094 137.820312 648.476562 142.410156 L 529.074219 254.300781 C 524.175781 258.886719 527.042969 267.039062 533.757812 267.628906 Z M 533.757812 267.628906 " fill-opacity="1" fill-rule="nonzero"/><path fill="#fb0294" d="M 582.164062 602.546875 C 635.433594 558.644531 667.871094 500.347656 679.644531 438.863281 L 647.269531 433.546875 C 637.910156 481.667969 614.28125 527.554688 576.160156 564.316406 C 473.140625 663.613281 306.050781 657.449219 210.996094 547.691406 C 129.539062 453.644531 131.546875 311.269531 215.625 219.53125 C 313.738281 112.453125 480.945312 110.914062 581.117188 213.042969 L 604.5625 190.441406 C 495.484375 79.257812 316.117188 76.765625 203.9375 184.886719 C 87.519531 297.101562 89.210938 484.351562 211.175781 594.320312 C 314.597656 687.554688 474.683594 691.140625 582.164062 602.546875 Z M 582.164062 602.546875 " fill-opacity="1" fill-rule="nonzero"/><path fill="#fb0294" d="M 666.179688 420.167969 C 657.246094 418.679688 648.78125 424.644531 647.292969 433.472656 L 679.652344 438.847656 C 681.144531 430.035156 675.117188 421.667969 666.179688 420.167969 Z M 666.179688 420.167969 " fill-opacity="1" fill-rule="nonzero"/><path fill="#fb0294" d="M 529.285156 398.753906 C 529.699219 397.402344 529.953125 396.019531 530.226562 394.636719 C 530.511719 393.1875 530.820312 391.75 530.96875 390.296875 C 531.105469 388.882812 531.074219 387.464844 531.085938 386.039062 C 531.085938 384.613281 531.105469 383.199219 530.96875 381.78125 C 530.828125 380.324219 530.523438 378.886719 530.226562 377.445312 C 529.949219 376.058594 529.695312 374.675781 529.285156 373.324219 C 528.882812 371.984375 528.335938 370.671875 527.796875 369.351562 C 527.203125 367.90625 526.613281 366.488281 525.871094 365.105469 C 525.625 364.644531 525.5 364.164062 525.234375 363.710938 C 524.789062 362.945312 524.1875 362.328125 523.699219 361.59375 C 522.835938 360.292969 521.953125 359.023438 520.953125 357.808594 C 519.980469 356.632812 518.941406 355.554688 517.863281 354.496094 C 516.890625 353.542969 515.917969 352.609375 514.851562 351.730469 C 513.507812 350.628906 512.113281 349.675781 510.664062 348.742188 C 509.996094 348.3125 509.449219 347.78125 508.75 347.378906 L 370.246094 268.132812 C 369.511719 267.710938 368.730469 267.503906 367.992188 267.125 C 366.511719 266.378906 365.019531 265.679688 363.445312 265.09375 C 362.113281 264.597656 360.769531 264.214844 359.414062 263.855469 C 357.972656 263.46875 356.546875 263.121094 355.054688 262.882812 C 353.480469 262.621094 351.925781 262.503906 350.339844 262.410156 C 349.464844 262.355469 348.617188 262.148438 347.730469 262.148438 C 347.199219 262.148438 346.714844 262.285156 346.195312 262.308594 C 344.640625 262.359375 343.109375 262.558594 341.574219 262.769531 C 340.125 262.96875 338.6875 263.148438 337.28125 263.484375 C 335.949219 263.796875 334.671875 264.25 333.367188 264.6875 C 331.898438 265.179688 330.425781 265.648438 329.03125 266.289062 C 327.804688 266.84375 326.660156 267.535156 325.488281 268.195312 C 324.15625 268.949219 322.824219 269.683594 321.585938 270.5625 C 320.476562 271.351562 319.445312 272.261719 318.410156 273.164062 C 317.25 274.167969 316.082031 275.152344 315.027344 276.265625 C 314.140625 277.199219 313.34375 278.234375 312.542969 279.25 C 311.488281 280.570312 310.46875 281.902344 309.570312 283.339844 C 309.328125 283.738281 308.988281 284.054688 308.757812 284.460938 C 308.355469 285.15625 308.144531 285.910156 307.777344 286.613281 C 307.003906 288.125 306.277344 289.628906 305.683594 291.238281 C 305.195312 292.535156 304.816406 293.835938 304.457031 295.160156 C 304.0625 296.605469 303.703125 298.042969 303.464844 299.527344 C 303.210938 301.082031 303.082031 302.621094 302.988281 304.183594 C 302.933594 305.054688 302.722656 305.882812 302.722656 306.773438 L 302.722656 465.28125 C 302.722656 466.171875 302.933594 467 302.988281 467.867188 C 303.082031 469.429688 303.199219 470.972656 303.464844 472.523438 C 303.707031 474.027344 304.066406 475.457031 304.457031 476.894531 C 304.816406 478.214844 305.199219 479.515625 305.683594 480.816406 C 306.285156 482.421875 307.003906 483.929688 307.777344 485.441406 C 308.136719 486.15625 308.351562 486.898438 308.757812 487.59375 C 309.003906 488 309.332031 488.316406 309.570312 488.714844 C 310.46875 490.152344 311.488281 491.480469 312.542969 492.800781 C 313.355469 493.828125 314.140625 494.855469 315.027344 495.789062 C 316.082031 496.902344 317.25 497.898438 318.410156 498.890625 C 319.457031 499.78125 320.476562 500.707031 321.585938 501.492188 C 322.820312 502.371094 324.152344 503.105469 325.488281 503.859375 C 326.660156 504.519531 327.804688 505.210938 329.03125 505.765625 C 330.425781 506.402344 331.898438 506.878906 333.367188 507.367188 C 334.667969 507.808594 335.945312 508.257812 337.28125 508.574219 C 338.6875 508.910156 340.125 509.089844 341.574219 509.289062 C 343.117188 509.496094 344.640625 509.699219 346.195312 509.75 C 346.714844 509.773438 347.199219 509.910156 347.730469 509.910156 C 348.625 509.910156 349.464844 509.703125 350.339844 509.648438 C 351.914062 509.5625 353.480469 509.441406 355.054688 509.175781 C 356.546875 508.933594 357.972656 508.578125 359.414062 508.199219 C 360.765625 507.832031 362.109375 507.457031 363.445312 506.964844 C 365.019531 506.378906 366.511719 505.6875 367.992188 504.933594 C 368.730469 504.554688 369.511719 504.347656 370.246094 503.925781 L 508.746094 424.664062 C 509.445312 424.265625 509.992188 423.730469 510.660156 423.300781 C 512.097656 422.378906 513.503906 421.410156 514.847656 420.3125 C 515.914062 419.445312 516.890625 418.511719 517.859375 417.546875 C 518.9375 416.488281 519.976562 415.40625 520.949219 414.234375 C 521.953125 413.019531 522.832031 411.75 523.695312 410.449219 C 524.183594 409.714844 524.785156 409.109375 525.230469 408.332031 C 525.496094 407.878906 525.621094 407.402344 525.867188 406.9375 C 526.609375 405.554688 527.207031 404.136719 527.792969 402.691406 C 528.335938 401.386719 528.882812 400.085938 529.285156 398.753906 Z M 529.285156 398.753906 " fill-opacity="1" fill-rule="nonzero"/></svg>